<svg width="1792" height="1792" viewBox="0 0 1792 1792" xmlns="http://www.w3.org/2000/svg"><path d="M1664,1632V842.5H512V1632c0,8.67,3.17,16.17,9.5,22.5s13.83,9.5,22.5,9.5h1088c8.67,0,16.17-3.17,22.5-9.5 S1664,1640.67,1664,1632z M1792,670.5V1632c0,44-15.67,81.67-47,113s-69,47-113,47H544c-44,0-81.67-15.67-113-47s-47-69-47-113 V670.5c0-44,15.67-81.67,47-113s69-47,113-47h1088c44,0,81.67,15.67,113,47S1792,626.5,1792,670.5z M1408,160v286.5h-128V332 l-1152,0v788c0,8.67,3.17,16.17,9.5,22.5s13.83,9.5,22.5,9.5h160v128H160c-44,0-81.67-15.67-113-47s-47-69-47-113V160 c0-44,15.67-81.67,47-113S116,0,160,0h1088c44,0,81.67,15.67,113,47S1408,116,1408,160z"/></svg>